<svg width="100" height="100" viewBox="0 0 100 100" fill="none" xmlns="http://www.w3.org/2000/svg">
<path d="M45.794 2.08829L2.08996 45.7564C-0.259642 48.1041 -0.259642 51.896 2.08996 54.2436L45.794 97.9118C48.1436 100.259 51.9386 100.259 54.2882 97.9118L72.6127 79.6023C74.717 77.4998 74.717 74.091 72.6127 71.9885C70.5085 69.886 67.0968 69.886 64.9926 71.9885L51.1009 85.8687C50.5161 86.453 49.6286 86.453 49.0437 85.8687L14.1429 50.9966C13.5581 50.4122 13.5581 49.5254 14.1429 48.9411L49.0437 14.069C49.6286 13.4846 50.5161 13.4846 51.1009 14.069L64.9926 27.9492C67.0968 30.0517 70.5085 30.0517 72.6127 27.9492C74.717 25.8467 74.717 22.4378 72.6127 20.3353L54.2903 2.0279C51.931 -0.268971 48.1346 -0.250377 45.794 2.08829Z" fill="url(#paint0_linear)"/>
<path d="M45.794 2.08829L2.08996 45.7564C-0.259642 48.1041 -0.259642 51.896 2.08996 54.2436L45.794 97.9118C48.1436 100.259 51.9386 100.259 54.2882 97.9118L72.6127 79.6023C74.717 77.4998 74.717 74.091 72.6127 71.9885C70.5085 69.886 67.0968 69.886 64.9926 71.9885L51.1009 85.8687C50.5161 86.453 49.6286 86.453 49.0437 85.8687L14.1429 50.9966C13.5581 50.4122 13.5581 49.5254 14.1429 48.9411L49.0437 14.069C50.4999 12.8136 52.8758 10.2709 56.3648 9.67625C58.9578 9.23428 61.7926 10.207 64.8693 12.5945C62.8123 10.5392 59.286 7.01704 54.2903 2.0279C51.931 -0.268971 48.1346 -0.250377 45.794 2.08829Z" fill="url(#paint1_linear)"/>
<path d="M76.8428 67.9273C78.9471 70.0298 82.3587 70.0298 84.4629 67.9273L97.98 54.4214C100.33 52.0737 100.33 48.2819 97.9803 45.9345L84.3454 32.3591C82.2362 30.2591 78.8234 30.2621 76.718 32.3659C74.6137 34.4684 74.6137 37.8772 76.718 39.9797L85.927 49.1812C86.5118 49.7656 86.5118 50.6524 85.927 51.2367L76.8428 60.3135C74.7386 62.416 74.7386 65.8248 76.8428 67.9273Z" fill="url(#paint2_linear)"/>
<path d="M50.2597 62.0088C56.7767 62.0088 62.0598 56.73 62.0598 50.2184C62.0598 43.7067 56.7767 38.428 50.2597 38.428C43.7427 38.428 38.4596 43.7067 38.4596 50.2184C38.4596 56.73 43.7427 62.0088 50.2597 62.0088Z" fill="url(#paint3_linear)"/>
<defs>
<linearGradient id="paint0_linear" x1="46.1985" y1="0.319644" x2="87.7301" y2="25.6823" gradientUnits="userSpaceOnUse">
<stop stop-color="#4285EB"/>
<stop offset="1" stop-color="#2EC7FF"/>
</linearGradient>
<linearGradient id="paint1_linear" x1="51.7691" y1="0.31964" x2="31.2563" y2="106.335" gradientUnits="userSpaceOnUse">
<stop stop-color="#29CDFF"/>
<stop offset="0.378601" stop-color="#148EFF"/>
<stop offset="1" stop-color="#0A60FF"/>
</linearGradient>
<linearGradient id="paint2_linear" x1="92.2854" y1="25.7626" x2="65.5952" y2="67.504" gradientUnits="userSpaceOnUse">
<stop stop-color="#FA816E"/>
<stop offset="0.414726" stop-color="#F74A5C"/>
<stop offset="1" stop-color="#F51D2C"/>
</linearGradient>
<linearGradient id="paint3_linear" x1="54.5379" y1="30.0119" x2="45.6573" y2="65.5358" gradientUnits="userSpaceOnUse">
<stop stop-color="#FA8E7D"/>
<stop offset="0.512635" stop-color="#F74A5C"/>
<stop offset="1" stop-color="#F51D2C"/>
</linearGradient>
</defs>
</svg>
