<svg width="100" height="100" viewBox="0 0 100 100" fill="none" xmlns="http://www.w3.org/2000/svg">
<path d="M40.2751 8.33334L38.2324 18.8477C34.7984 20.1427 31.645 21.9581 28.8819 24.2269L18.7826 20.7438L9.0495 37.5895L17.1387 44.6208C16.8277 46.5301 16.6667 48.2994 16.6667 50C16.6667 51.7032 16.8325 53.4693 17.1387 55.3792V55.3874L9.0495 62.4186L18.7826 79.2562L28.8737 75.7813C31.6371 78.0513 34.7977 79.8565 38.2324 81.1524L40.2751 91.6667H59.725L61.7676 81.1524C65.2039 79.8564 68.3538 78.0441 71.1182 75.7731L81.2175 79.2562L90.9424 62.4186L82.8613 55.3792C83.1723 53.47 83.3334 51.7007 83.3334 50C83.3334 48.3019 83.1714 46.5349 82.8613 44.6289V44.6208L90.9505 37.5814L81.2175 20.7438L71.1263 24.2188C68.363 21.9487 65.2024 20.1435 61.7676 18.8477L59.725 8.33334H40.2751ZM47.1436 16.6667H52.8565L54.4759 25L58.8216 26.6439C61.4411 27.6311 63.7945 28.9865 65.8366 30.6641L69.4336 33.61L77.4414 30.8594L80.2979 35.7992L73.9014 41.3656L74.6338 45.9473V45.9554C74.8886 47.5177 75 48.8282 75 50C75 51.1718 74.8886 52.4822 74.6338 54.0446L73.8932 58.6263L80.2897 64.1927L77.4333 69.1406L69.4336 66.3819L65.8285 69.336C63.7863 71.0135 61.4411 72.3689 58.8216 73.3561H58.8135L54.4678 75L52.8483 83.3333H47.1436L45.5241 75L41.1784 73.3561C38.559 72.3689 36.2056 71.0135 34.1634 69.336L30.5664 66.39L22.5586 69.1406L19.7022 64.2009L26.1068 58.6263L25.3662 54.0609V54.0527C25.1151 52.4837 25 51.1695 25 50C25 48.8282 25.1114 47.5179 25.3662 45.9554L26.1068 41.3737L19.7022 35.8073L22.5586 30.8594L30.5664 33.6182L34.1634 30.6641C36.2056 28.9865 38.559 27.6311 41.1784 26.6439L45.5241 25L47.1436 16.6667ZM50 33.3333C40.8478 33.3333 33.3334 40.8478 33.3334 50C33.3334 59.1522 40.8478 66.6667 50 66.6667C59.1522 66.6667 66.6667 59.1522 66.6667 50C66.6667 40.8478 59.1522 33.3333 50 33.3333ZM50 41.6667C54.6312 41.6667 58.3334 45.3689 58.3334 50C58.3334 54.6312 54.6312 58.3333 50 58.3333C45.3689 58.3333 41.6667 54.6312 41.6667 50C41.6667 45.3689 45.3689 41.6667 50 41.6667Z" fill="#979797"/>
</svg>
