<svg width="100" height="100" viewBox="0 0 100 100" fill="none" xmlns="http://www.w3.org/2000/svg">
<path d="M93.7393 49.1883C93.7393 44.0526 89.1369 39.8894 83.4596 39.8894C83.0944 39.8894 82.7342 39.9071 82.3791 39.9406L96.4982 2.271H36.4967L50.5959 39.9081C50.3893 39.8968 50.1814 39.8894 49.9713 39.8894C44.294 39.8894 39.6916 44.0526 39.6916 49.1883C39.6916 53.3396 42.699 56.8541 46.8501 58.0498C44.6576 61.4851 41.899 64.5792 38.7671 67.2519C34.508 70.8865 29.6339 73.6423 24.3623 75.3406C18.0858 72.424 15.1217 65.9371 17.7963 60.2498C18.0982 59.6077 18.4064 58.9565 18.7014 58.3085C23.2482 57.3484 26.6366 53.6608 26.6366 49.2551C26.6366 44.1194 22.0343 39.9562 16.3568 39.9562C10.6791 39.9562 6.07678 44.1194 6.07678 49.2551C6.07678 52.4046 7.80921 55.1859 10.4569 56.8681C7.91233 62.1088 4.17249 67.5929 3.00724 73.9491C1.61077 81.5671 3.00295 89.6534 10.2862 94.2197C27.2486 104.854 45.6612 87.6272 65.0748 83.2964C72.1104 81.7268 79.8334 81.9798 86.0322 78.7321C90.6873 76.2933 93.756 72.2516 94.6272 67.7138C95.4873 63.231 94.233 58.7679 91.3486 55.1488C92.8404 53.5346 93.7393 51.4568 93.7393 49.1883ZM60.2501 49.2212C60.2501 49.2102 60.2514 49.1993 60.2514 49.1883C60.2514 45.8159 58.2662 42.8625 55.2959 41.2325L66.5178 20.7056L77.7592 41.4501C74.9986 43.1173 73.1795 45.9604 73.1795 49.1883C73.1795 49.2562 73.1839 49.323 73.1854 49.3905L60.2501 49.2212Z" fill="#C63D14"/>
<path d="M96.2496 49.1883C96.2496 43.5399 91.7508 38.8268 85.8246 37.8201L100 0H32.9945L47.1914 37.8968C41.4715 39.0484 37.1809 43.6725 37.1809 49.1883C37.1809 53.3308 39.6008 56.9692 43.2277 59.0138C41.4832 61.3646 39.4145 63.577 37.0437 65.6C33.2844 68.8084 29.0958 71.2417 24.5801 72.8424C20.0321 70.2579 18.1094 65.3845 20.1063 61.1385L20.2626 60.8063C20.3601 60.5985 20.4582 60.3901 20.5559 60.1816C25.5512 58.606 29.1469 54.3046 29.1469 49.2551C29.1469 42.8753 23.409 37.6851 16.3563 37.6851C9.30353 37.6851 3.56603 42.8753 3.56603 49.2551C3.56603 52.4753 5.02893 55.3912 7.3836 57.4908C6.95666 58.3141 6.50782 59.1509 6.0465 60.0082C3.89337 64.0084 1.45314 68.5428 0.530094 73.5778C-1.30311 83.5774 1.65353 91.571 8.85549 96.0862C13.2258 98.8262 17.6637 99.9038 22.1297 99.9035C30.5395 99.9031 39.0462 96.0816 47.3664 92.3432C53.359 89.6509 59.5551 86.8668 65.6758 85.5014C67.9531 84.9933 70.2965 84.6876 72.7773 84.3639C77.6969 83.7218 82.7844 83.0583 87.2906 80.6975C92.5137 77.9608 96.0895 73.37 97.1004 68.1025C97.9683 63.5805 96.9235 59.052 94.3758 55.2109C95.5637 53.4555 96.2496 51.3933 96.2496 49.1883ZM91.2285 49.1883C91.2285 53.0635 87.7433 56.2166 83.459 56.2166C79.1754 56.2166 75.6899 53.0635 75.6899 49.1883C75.6899 45.313 79.1754 42.1604 83.459 42.1604C87.7433 42.1604 91.2285 45.313 91.2285 49.1883ZM92.9958 4.54205L80.4781 37.9388C79.9355 38.0566 79.4067 38.205 78.893 38.3834L66.5273 15.5643L54.1258 38.2484C53.5899 38.0813 53.0383 37.9438 52.4727 37.8421L39.9981 4.54205H92.9958ZM49.9712 42.1604C54.2551 42.1604 57.7403 45.313 57.7403 49.1883C57.7403 53.0635 54.2551 56.2166 49.9712 56.2166C45.6876 56.2166 42.2019 53.0635 42.2019 49.1883C42.2019 45.313 45.6876 42.1604 49.9712 42.1604ZM16.3563 42.2272C20.6406 42.2272 24.1258 45.3799 24.1258 49.2551C24.1258 53.1304 20.6406 56.2834 16.3563 56.2834C12.0727 56.2834 8.58713 53.1304 8.58713 49.2551C8.58713 45.3799 12.0727 42.2272 16.3563 42.2272ZM92.1531 67.3254C91.3973 71.2646 88.7074 74.706 84.7738 76.7668C81.107 78.688 76.713 79.2614 72.0605 79.8681C69.5683 80.1933 66.991 80.5297 64.4735 81.0916C57.8164 82.5763 51.3683 85.4735 45.1328 88.2753C32.6544 93.882 21.8773 98.7237 11.716 92.353C4.27267 87.6866 4.61643 79.0522 5.4836 74.3208C6.28713 69.9375 8.45978 65.9004 10.561 61.996C10.9246 61.3205 11.2777 60.6587 11.6242 60.001C12.6664 60.378 13.7746 60.635 14.9297 60.7516C12.791 67.1371 16.1547 74.0799 23.2145 77.3608L24.1805 77.8099L25.204 77.4803C30.7851 75.6824 35.9277 72.7968 40.4895 68.9039C43.4383 66.3876 45.9723 63.6035 48.0559 60.6287C48.6809 60.7138 49.3204 60.7587 49.9712 60.7587C57.0238 60.7587 62.7618 55.5685 62.7618 49.1883C62.7618 45.7572 61.1004 42.6717 58.4691 40.5509L66.5074 25.847L74.6273 40.831C72.191 42.9392 70.6687 45.905 70.6687 49.1883C70.6687 55.5685 76.4063 60.7587 83.459 60.7587C86.1687 60.7587 88.6824 59.9904 90.7527 58.6851C92.1903 61.347 92.7258 64.3421 92.1531 67.3254Z" fill="white"/>
</svg>
