<svg width="100" height="34" viewBox="0 0 100 34" fill="none" xmlns="http://www.w3.org/2000/svg">
<g clip-path="url(#clip0)">
<path d="M28.0665 16.6446C28.0665 11.488 28.0745 6.32736 28.0546 1.17469C28.0546 0.457927 28.5285 0.011946 29.2452 0.011946C30.5712 0.00398198 31.9052 0 33.2311 0.011946C33.9838 0.0199099 34.4218 0.477837 34.4138 1.18264C34.3939 5.74599 34.4019 10.3173 34.4019 14.8807V15.1315C34.4098 15.6372 34.6328 16.0075 35.0987 16.2066C35.5487 16.3978 35.9708 16.2983 36.3371 15.908C37.675 14.4745 39.009 13.037 40.339 11.5995C41.1553 10.7155 41.9835 9.84347 42.7919 8.95545C43.0985 8.62099 43.4529 8.46174 43.9108 8.46967C45.5792 8.48157 47.2557 8.48157 48.9241 8.46967C49.4179 8.46967 49.8082 8.62099 50.0152 9.07893C50.2263 9.55273 50.1267 9.97488 49.7723 10.3611C47.2677 13.1326 44.771 15.908 42.2702 18.6794C42.0711 18.9025 41.876 19.1334 41.7207 19.3883C41.442 19.8382 41.442 20.2802 41.7008 20.7381C41.9796 21.2319 42.3738 21.6301 42.764 22.0323C45.7943 25.1462 48.8325 28.2601 51.8708 31.366C52.2372 31.7443 52.3447 32.1584 52.1615 32.6442C51.9863 33.0982 51.6398 33.3053 51.0704 33.3053C49.2149 33.3053 47.3553 33.2973 45.4997 33.3053C45.0816 33.3053 44.759 33.1738 44.4603 32.8553C41.7645 30.0241 39.0488 27.2088 36.3411 24.3896C35.9549 23.9835 35.5248 23.8799 35.0788 24.067C34.6288 24.2463 34.3939 24.6285 34.3939 25.182V32.1226C34.3939 32.8712 34.0156 33.2574 33.2749 33.2614H29.1974C28.3811 33.2614 28.0625 32.9389 28.0625 32.1345L28.0665 16.6446ZM53.368 11.4561C53.368 8.0436 53.38 4.62706 53.3561 1.2145C53.3481 0.441999 53.7981 0 54.5825 0C55.8727 0.00796395 57.1549 0 58.4411 0C59.1936 0 59.6237 0.422089 59.6237 1.1707C59.6316 3.16169 59.6316 5.15666 59.6357 7.14764C59.6357 8.00775 60.0777 8.45372 60.9298 8.45372H66.2855C66.851 8.45372 67.2213 8.76033 67.3328 9.3138C67.3886 9.58066 67.3687 9.84744 67.3766 10.1221V13.4232C67.3766 14.2874 66.9904 14.6736 66.1263 14.6736C64.414 14.6736 62.7018 14.6656 60.9895 14.6656C60.1135 14.6656 59.6635 15.1076 59.6556 15.9717C59.6476 17.7278 59.6197 19.4759 59.6436 21.2319C59.6795 23.9078 61.7302 26.3726 64.3941 27.0018C65.1786 27.1889 65.9749 27.2208 66.7714 27.1093C67.4204 27.0177 67.8903 27.3641 67.9659 28.0172C68.1292 29.4069 68.2765 30.8006 68.4199 32.1903C68.4756 32.7199 68.0894 33.2057 67.5439 33.2933C66.0745 33.5441 64.6052 33.4565 63.1597 33.13C57.9991 31.9753 54.2083 27.8499 53.4676 22.6216C53.3919 22.104 53.368 21.5863 53.368 21.0726V11.4561ZM99.1884 27.7623C99.1884 27.2885 98.8264 26.958 98.352 26.934C98.0297 26.9221 97.7116 26.9102 97.3884 26.8823C95.7405 26.7588 94.8917 25.9864 94.5934 24.3617C94.3628 23.1233 94.3702 21.865 94.3628 20.6067C94.3504 16.995 94.3545 13.3834 94.3545 9.77174C94.3545 9.66422 94.3545 9.56471 94.3463 9.46116C94.3025 8.87579 93.881 8.45769 93.2876 8.45769C91.8975 8.44975 90.5041 8.44975 89.114 8.45769C88.4851 8.45769 88.0388 8.90769 88.0116 9.52884C88.0033 9.68017 88.0116 9.83545 88.0116 10.0147C87.8917 9.95099 87.8 9.90719 87.7124 9.86339C85.2041 8.54529 82.544 8.11925 79.7486 8.58512C72.6328 9.77975 67.9938 16.9074 69.7618 23.8998C72.0077 32.7717 82.6435 36.3036 89.7595 30.5298C89.9264 30.3945 89.9942 30.3984 90.1256 30.5816C90.8587 31.6288 91.8256 32.3854 93.0289 32.8433C94.3545 33.349 95.7364 33.4168 97.138 33.3172C97.6355 33.2813 98.1297 33.2097 98.5835 32.9827C98.9058 32.8194 99.1686 32.5765 99.1768 32.2062C99.2049 30.725 99.1967 29.2436 99.1884 27.7623ZM81.875 27.1212C78.4147 27.1093 75.6631 24.294 75.675 20.766C75.687 17.4291 78.5142 14.6577 81.9068 14.6656C85.3868 14.6736 88.1347 17.4689 88.1264 21.005C88.1149 24.3379 85.2678 27.1252 81.875 27.1212ZM12.5249 8.40595C5.91482 8.41793 0.172808 13.5228 0.0254747 20.6147C-0.125841 27.9495 5.68386 33.1978 12.1705 33.361C19.1071 33.5362 24.8531 28.061 24.9725 21.1443C25.088 14.1041 19.573 8.48562 12.5249 8.40595ZM12.4811 27.1212C9.06858 27.1212 6.26922 24.3179 6.26125 20.8934C6.25328 17.465 9.04866 14.6656 12.493 14.6536C15.9295 14.6457 18.7129 17.4371 18.7129 20.8855C18.7129 24.3339 15.9295 27.1212 12.4811 27.1212Z" fill="#007DC1"/>
</g>
<defs>
<clipPath id="clip0">
<rect width="100" height="33.8843" fill="white"/>
</clipPath>
</defs>
</svg>
